<?xml version="1.0" standalone="no"?>
<!DOCTYPE svg PUBLIC "-//W3C//DTD SVG 20010904//EN"
 "http://www.w3.org/TR/2001/REC-SVG-20010904/DTD/svg10.dtd">
<svg version="1.0" xmlns="http://www.w3.org/2000/svg"
 width="261.000000pt" height="261.000000pt" viewBox="0 0 261.000000 261.000000"
 preserveAspectRatio="xMidYMid meet">
<metadata>
Created by potrace 1.11, written by Peter Selinger 2001-2013
</metadata>
<g transform="translate(0.000000,261.000000) scale(0.100000,-0.100000)"
fill="#000000" stroke="none">
<path d="M1460 1926 c-230 -86 -562 -350 -669 -532 -73 -124 -86 -172 -86
-314 0 -159 16 -211 89 -286 59 -61 108 -78 201 -72 131 8 370 156 695 429
160 135 201 179 194 207 -4 12 -10 22 -15 22 -5 0 -49 -33 -97 -73 -217 -181
-487 -374 -600 -431 -73 -37 -131 -34 -151 9 -54 113 209 546 483 798 59 53
122 107 140 119 22 14 38 36 45 59 15 49 15 49 -18 49 -16 0 -40 4 -54 9 -44
17 -121 20 -157 7z"/>
<path d="M1873 1123 c-13 -2 -36 -23 -53 -46 -16 -23 -66 -73 -110 -111 -45
-38 -86 -78 -91 -88 -13 -25 -2 -58 20 -58 21 0 82 43 130 91 60 62 159 222
134 218 -5 -1 -18 -4 -30 -6z"/>
</g>
</svg>
