<svg xmlns="http://www.w3.org/2000/svg" viewBox="0 0 260 260"><path d="M188.3,127.1c0-.8-.8-1.8-.7-2.5a10.8,10.8,0,0,0-.5-2.6s-64.3,54.4-79,54.4c-23.1,0,14.7-59.2,37.2-79.7l12.6-11.6a57.6,57.6,0,0,1,9.4-6.9c.5-.5,2.5-7.6,2.5-8.2h-3a14.7,14.7,0,0,0-2.6.3s-5.2-3-14.5-3c-5.9,0-80.1,35.4-80.1,84.5,0,24.2,10.2,37.3,28.7,37.3C121.7,189,188.3,129.7,188.3,127.1Z"/><path d="M190.3,147.6a11.7,11.7,0,0,1-5.3,1.6s-4.3,5.9-5.9,7.5c-9.9,10-15.6,12.8-17.5,16.8-.6,1.4-1.5,5.1,2.5,5.1s10.7-7,12.1-8.6C186.2,159.1,191.1,147.6,190.3,147.6Z"/></svg>